<?xml version="1.0" encoding="utf-8"?>
<svg width="533" height="379" viewBox="0 0 533 379" fill="none" xmlns="http://www.w3.org/2000/svg">
  <path d="M364.426 0.996338C369.43 2.59424 369.152 2.46631 373.517 6.23877C377.375 9.51563 379.468 14.2231 379.949 20.657C380.257 24.7656 378.852 32.7983 377.378 35.4485C374.799 40.3203 371.08 45.1526 368.304 47.3889C364.894 50.0808 363.333 53.3645 364.018 56.2627C364.227 57.2568 365.058 57.6406 366.929 57.6057C372.951 57.6155 382.273 47.2117 385.834 36.6936C385.834 36.6936 387.752 31.03 387.752 31.03C387.752 31.03 386.892 19.5574 386.892 19.5574C386.172 9.94507 386.171 8.14868 387.034 8.06055C388.693 7.89087 404.656 9.30688 407.243 9.90186C413.968 11.2458 421.95 13.3206 422.589 13.802C423.011 14.0715 424.047 14.5125 425 14.7275C426.972 15.1509 441.098 21.5193 443.832 23.1926C444.813 23.7954 447.193 25.1926 449.079 26.2498C453.206 28.6404 458.462 32.7122 458.531 33.6423C458.561 34.0298 457.787 34.4214 456.725 34.5298C452.409 34.9707 445.267 42.3396 442.507 49.261C441.146 52.5244 441.04 53.7852 441.528 60.2966C441.938 66.6597 442.241 68.0347 443.75 70.3022C444.656 71.6936 446.179 73.2566 447.089 73.7886C448.547 74.4988 448.939 74.3806 449.975 73.0251C451.743 70.7354 451.878 68.0659 450.438 63.1357C449.417 59.3345 449.336 58.2493 449.906 55.1445C451.387 48.1196 456.275 43.7146 463.64 42.8843C468.215 42.3389 469.029 42.4902 475.339 45.4387C481.154 48.0474 495.771 63.6606 503.774 75.8096C507.547 81.5168 512.713 91.5342 513.645 95.0322C513.645 95.0322 514.301 97.5427 514.301 97.5427C514.301 97.5427 512.069 97.2241 512.069 97.2241C510.784 97.0427 509.482 96.6289 509.121 96.2754C508.693 95.9285 506.413 95.8491 503.957 96.0999C495.923 96.9207 489.598 103.581 487.33 113.499C486.304 117.665 486.311 119.539 487.079 127.115C488.017 136.94 489.042 139.022 492.627 138.656C496.213 138.29 496.979 136.024 496.329 127.342C495.864 121.141 495.961 118.866 496.789 116.516C499.266 109.389 504.44 106.127 511.341 107.14C515.948 107.92 520.035 111.564 522.817 117.45C523.866 119.843 525.127 122.37 525.522 123.189C529.097 130.713 531.799 141.763 532.644 152.144C533.347 161.523 533.065 166.707 531.294 176.105C526.675 200.167 509.153 218.126 485.431 222.97C477.854 224.525 477.637 224.313 480.65 217.209C481.727 214.6 482.608 212.088 482.573 211.624C482.538 211.158 482.775 210.744 483.107 210.71C483.439 210.676 483.883 209.459 483.978 208.043C484.145 206.698 484.493 205.1 484.729 204.686C486.331 201.944 485.844 184.732 484.001 177.109C483.023 172.99 479.905 166.201 477.285 162.485C473.914 157.674 466.847 151.756 461.791 149.461C453.138 145.58 441.18 144.927 435.058 148.052C431.124 150.015 429.941 152.089 430.267 156.43C430.679 161.934 431.92 162.432 442.942 161.306C451.972 160.384 452.442 160.414 456.058 162.232C460.36 164.292 466.613 170.058 468.642 173.913C473.772 183.465 474.396 197.149 470.074 208.213C466.098 218.54 457.485 229.496 448.513 235.646C445.708 237.495 443.041 239.407 442.473 239.856C441.903 240.305 440.285 241.017 438.913 241.469C437.471 241.851 435.79 242.647 435.095 243.187C434.399 243.727 428.73 244.853 422.506 245.723C410.59 247.409 410.203 247.604 408.768 251.656C408.372 252.634 408.249 255.459 408.441 258.017C408.917 264.373 407.821 265.813 398.427 271.694C396.831 272.716 391.147 274.546 386.015 275.696C382.132 276.561 371.725 276.062 368.549 274.746C359.936 271.408 355.315 268.677 350.134 263.816C345.969 260.024 339.97 252.279 338.218 248.552C337.097 246.089 335.416 245.089 333.598 245.822C331.52 246.659 329.538 249.673 329.688 251.689C329.811 253.316 335.618 264.752 337.86 267.882C338.527 268.751 339.085 269.944 339.12 270.409C339.155 270.875 336.832 272.908 333.978 274.996C326.916 279.857 321.88 284.98 315.744 293.262C310.824 299.935 304.415 310.823 301.917 316.78C300.386 320.451 300.581 323.947 302.446 325.631C304.379 327.308 309.511 326.159 310.737 323.768C311.198 322.784 311.908 321.54 312.398 320.943C312.817 320.275 314.484 317.527 316.024 314.87C319.804 308.157 328.061 296.925 331.57 293.755C334.136 291.384 336.349 289.673 341.893 285.983C344.505 284.232 355.206 283.295 356.65 284.71C357.583 285.552 357.05 286.465 352.314 292.026C349.299 295.537 345.921 299.553 344.758 301C340.895 305.69 325.638 327.089 321.758 333.344C319.6 336.689 317.569 339.942 317.272 340.441C314.993 343.955 307.192 357.718 304.335 363.322C300.48 370.823 297.907 373.976 294.331 375.357C292.966 375.887 287.097 377.033 281.205 377.869C268.172 379.826 267.352 379.597 267.626 374.335C267.747 372.37 267.982 370.159 268.263 369.428C268.476 368.703 269.208 365.972 269.813 363.333C271.236 357.329 273.776 349.259 280.66 328.637C283.673 319.737 286.066 312.385 286.061 312.307C286.055 312.229 281.744 312.748 276.522 313.594C267.395 314.995 257.559 314.984 255.717 313.61C255.361 313.333 254.131 312.991 253.112 312.782C250.94 312.379 246.199 309.817 243.617 307.503C239.536 303.936 235.202 294.303 234.702 287.636C234.702 287.636 234.412 283.76 234.412 283.76C234.412 283.76 237.646 284.055 237.646 284.055C239.395 284.189 246.915 283.655 254.418 282.888C266.695 281.556 268.477 281.218 272.875 279.207C275.522 277.921 278.296 276.544 278.997 276.082C282.454 274.01 287.976 270.009 288.708 269.075C289.132 268.485 289.762 267.952 290.094 267.918C290.425 267.885 291.055 267.352 291.479 266.761C291.908 266.249 293.634 264.276 295.232 262.394C296.903 260.583 299.255 257.141 300.553 254.821C301.851 252.501 303.082 250.188 303.446 249.683C304.21 248.276 307.267 232.811 307.556 228.641C307.682 226.754 307.99 224.613 308.203 223.888C308.489 223.234 309.209 220.349 309.803 217.554C312.609 205.004 320.63 195.983 331.548 193.462C337.658 191.979 339.618 190.451 339.931 186.591C340.382 180.999 336.238 178.376 329.053 179.813C312.504 183.066 300.31 197.122 297.212 216.497C295.197 228.888 294.705 232.141 294.293 234.683C293.266 241.505 290.243 247.594 284.729 253.469C280.824 257.617 272.225 264.276 270.432 264.459C269.834 264.52 269.127 264.905 268.758 265.333C267.673 266.928 256.406 269.25 247.408 269.701C238.283 270.242 233.952 269.591 226.696 266.505C225.177 265.879 223.664 265.33 223.398 265.357C222.203 265.479 211.738 257.956 208.478 254.618C200.072 246.025 193.862 231.896 191.458 215.895C190.488 209.198 190.47 192.875 191.418 190.357C191.808 189.302 192.208 188.401 192.263 188.24C192.251 188.084 193.638 188.724 195.18 189.66C198.547 191.738 203.868 194.006 208.722 195.385C211.393 196.206 214.403 196.211 222.244 195.488C222.244 195.488 232.342 194.534 232.342 194.534C232.342 194.534 232.905 202.054 232.905 202.054C233.475 209.65 234.501 213.529 237.717 219.84C239.523 223.405 244.667 228.66 246.771 229.07C252.405 230.135 252.851 226.262 248.112 218.388C245.128 213.381 244.859 212.471 244.129 206.297C242.88 195.879 244.405 192.131 252.606 185.513C256.272 182.639 257.102 179.429 255.212 175.639C253.4 171.996 250.813 171.401 246.354 173.497C234.27 179.184 225.699 181.778 219.085 181.907C214.138 181.943 204.555 179.954 204.474 178.869C204.45 178.559 204.028 178.289 203.563 178.337C202.368 178.459 197.188 173.598 194.994 170.229C193.938 168.619 192.264 165.04 191.186 162.26C189.51 157.745 189.255 156.131 188.829 146.879C188.324 135.682 188.775 131.887 191.9 121.804C195.354 110.75 202.094 100.688 209.955 94.886C214.901 91.2563 219.737 86.1538 222.666 81.4805C225.115 77.5591 225.808 76.0823 228.915 67.5632C230.187 63.9963 232.133 58.7205 233.191 55.8784C234.25 53.0364 235.38 50.2651 235.804 49.675C236.229 49.085 237.169 47.3484 237.999 45.9358C241.403 39.5735 250.857 31.8123 259.738 28.0149C267.841 24.5317 282.116 23.0735 290.28 24.8953C295.244 25.9504 300.054 27.6462 300.933 28.6501C301.148 28.8623 302.414 29.6704 303.739 30.3943C313.534 36.1113 321.126 52.5986 320.451 66.8054C320.19 73.1592 319.863 75.9265 319.28 77.0796C319.044 77.4944 318.744 78.8528 318.565 80.0427C318.454 81.2258 316.443 85.6492 314.217 89.8604C311.918 94.0007 310.132 97.8542 310.167 98.3193C310.324 100.412 312.136 104.055 313.317 104.637C314.016 105.034 315.831 105.161 317.292 105.012C320.679 104.666 323.572 101.324 327.374 93.125C330.1 87.5349 330.477 86.3247 332.261 78.8782C333.494 73.9092 332.867 54.8359 331.355 49.8352C330.823 48.093 330.017 45.3633 329.496 43.7761C329.042 42.1821 327.357 38.4487 325.792 35.406C322.125 28.4382 313.154 19.4343 307.261 16.6775C305.049 15.7319 303.229 14.668 303.206 14.3577C303.084 12.73 318.801 5.50073 327.786 3.09863C329.755 2.58521 337.844 1.60278 345.685 0.879883C358.975 -0.321533 360.314 -0.302002 364.426 0.996338C364.426 0.996338 364.426 0.996338 364.426 0.996338ZM153.961 40.46C155.656 40.7556 158.829 41.1345 161.055 41.376C163.208 41.5464 165.385 42.0271 165.807 42.2964C166.162 42.5725 168.501 43.4272 170.967 44.1909C173.433 44.9543 176.53 46.1221 177.851 46.7683C179.17 47.4148 180.478 47.906 180.743 47.8789C181.009 47.8518 182.811 48.6831 184.769 49.811C186.721 50.8616 189.144 51.9419 190.156 52.0728C191.176 52.281 192.34 52.6309 192.694 52.907C194.82 54.4866 204.954 55.7947 211.821 55.4839C217.217 55.167 219.504 55.324 219.827 56.072C220.731 58.323 214.377 75.2974 210.286 81.4175C207.819 85.1062 204.455 88.4182 198.68 92.6011C192.778 96.8752 188.952 101.172 185.167 107.807C180.679 115.764 177.122 127.219 176.505 135.953C176.275 138.241 175.985 142.411 175.796 145.242C175.352 150.912 176.586 162.034 178.498 170.587C179.571 175.086 179.711 176.946 179.253 180.664C178.969 183.115 178.624 187.446 178.495 190.193C178.373 193.018 178.094 195.546 177.852 195.883C177.549 196.304 173.143 194.646 167.947 192.286C155.896 186.8 155.347 186.621 148.628 185.354C140.148 183.799 129.271 185.067 119.588 188.868C109.444 192.794 101.792 195.138 97.0234 195.781C92.3154 196.34 77.9004 195.938 76.9072 195.18C76.5518 194.904 74.3145 194.508 72.0166 194.196C69.7188 193.884 66.9316 193.309 65.8896 192.791C64.8477 192.272 63.6113 191.852 63.1465 191.899C61.0889 192.109 43.2061 182.922 39.1367 179.51C37.1436 177.917 37.5186 177.567 41.7314 177.527C46.3408 177.447 63.5547 174.126 64.4805 173.094C64.8496 172.666 66.21 172.058 67.4473 171.619C68.6914 171.258 70.6309 170.357 71.6475 169.628C82.415 162.436 87.7256 158.3 91.2539 154.503C93.9111 151.575 97.7725 147.744 98.0381 147.717C98.2373 147.697 99.5557 146.547 101.057 145.144C104.809 141.636 114.943 134.039 119.937 131.03C122.245 129.7 124.99 127.936 126.139 127.194C127.221 126.458 128.448 125.864 128.846 125.823C129.244 125.783 130.084 125.385 130.719 124.929C135.08 121.516 151.051 115.901 166.563 112.207C171.43 111.085 175.621 109.876 175.936 109.609C176.25 109.343 175.144 107.972 173.501 106.577C166.729 101.02 155.557 89.4292 150.657 82.9775C145.458 76.0881 140.242 70.7627 136.314 68.3518C135.128 67.6919 134.067 66.9409 133.852 66.7288C133.129 66.0212 125.867 62.8577 125.004 62.9458C124.539 62.9932 123.652 62.7715 122.96 62.4517C121.08 61.4719 112.763 60.2905 106.596 60.1394C103.579 60.0569 100.882 59.7856 100.666 59.5735C99.8711 58.7954 108.54 51.2705 112.541 49.2996C113.768 48.7056 115.309 47.8452 116.01 47.3831C117.159 46.6406 120.349 45.4558 127.07 43.2068C130.924 41.9539 150.444 39.9602 153.961 40.46C153.961 40.46 153.961 40.46 153.961 40.46ZM108.802 89.5959C113.375 89.9099 119.551 91.0757 121.358 91.9846C122.124 92.375 124.335 93.3208 126.204 94.1455C128.133 94.8857 129.802 95.7307 130.023 96.0205C130.246 96.3101 131.86 97.3169 133.674 98.3035C136.746 100.02 144.287 106.905 144.958 108.711C145.138 109.318 144.479 109.463 142.663 109.336C128.378 107.983 124.637 108.053 117.734 109.695C113.919 110.554 109.009 111.993 106.858 112.759C99.3135 115.639 97.1074 116.567 95.8379 117.478C95.1367 117.94 93.3965 118.821 91.9648 119.357C90.5391 119.972 87.3662 121.389 84.8408 122.507C75.8613 126.782 57.624 129.817 57.4199 127.104C57.0371 121.988 74.1143 98.9973 79.8408 96.8501C80.9463 96.4248 81.8408 95.8647 81.8184 95.5547C81.7715 94.9346 85.8555 93.1895 91.5449 91.4368C95.4648 90.177 104.229 89.282 108.802 89.5959C108.802 89.5959 108.802 89.5959 108.802 89.5959ZM137.16 204.648C139.386 204.889 143.361 205.264 145.931 205.626C148.567 205.982 152.354 206.533 154.382 206.794C156.408 207.056 158.718 207.523 159.478 207.836C160.236 208.149 161.684 208.704 162.78 209.061C166 210.06 165.57 210.573 157.5 215.38C154.17 217.361 142.09 221.329 138.173 221.729C134.985 222.054 122.776 220.724 120.227 219.734C119.467 219.422 117.954 218.873 116.79 218.523C113.077 217.184 103.228 211.629 103.164 210.776C103.129 210.311 104.453 209.238 106.199 208.435C109.741 206.589 130.494 204.079 137.16 204.648C137.16 204.648 137.16 204.648 137.16 204.648ZM50.7734 216.986C55.5205 217.829 64.1006 219.843 65.7588 220.532C66.3125 220.788 67.8984 221.407 69.2061 221.899C70.5195 222.468 77.3662 225.439 84.4287 228.624C99.4473 235.292 100.417 235.739 107.164 237.393C109.956 238.045 112.76 238.853 113.314 239.108C113.935 239.357 115.437 239.751 116.716 239.854C118 240.036 121.04 240.428 123.477 240.804C130.443 241.811 141.027 241.98 144.246 241.182C154.753 238.547 159.077 237.324 159.634 236.72C160.009 236.37 161.562 235.664 163.198 235.185C164.769 234.712 166.521 233.986 167.095 233.615C167.604 233.25 170.498 231.705 173.531 230.224C176.564 228.742 179.388 227.126 179.757 226.698C180.617 225.672 181.001 226.336 181.852 230.545C183.813 240.656 188.448 250.727 195.127 259.497C197.436 262.62 201.152 266.692 203.374 268.653C207.321 272.233 216.692 278.54 217.821 278.425C219.481 278.255 220.992 281.46 221.977 287.452C222.576 290.984 223.349 295.045 223.713 296.335C224.19 298.239 224.104 298.873 223.445 299.019C222.915 299.073 220.022 299.759 216.931 300.465C207.528 302.675 185.985 305.344 180.139 305.004C177.183 304.838 172.482 304.615 169.726 304.427C161.067 304.062 141.672 300.575 136.168 298.56C135.408 298.247 132.328 297.312 129.313 296.37C126.305 295.506 123.213 294.416 122.436 293.87C121.665 293.402 120.634 293.039 120.169 293.086C119.306 293.174 103.534 286.271 102.74 285.493C102.523 285.281 101.614 284.749 100.644 284.301C98.2881 283.214 92.8184 279.867 86.9648 275.856C81.7432 272.25 63.1025 258.297 62.5068 257.499C62.29 257.287 58.793 254.363 54.6631 251.036C43.7666 242.229 31.6934 235.573 22.2148 233.182C16.6855 231.716 6.28711 230.435 5.53027 231.059C5.15527 231.409 4.93848 231.197 5.0918 230.557C5.67383 227.607 17.6104 220.842 26.7842 218.265C32.0264 216.792 45.6836 216.022 50.7734 216.986C50.7734 216.986 50.7734 216.986 50.7734 216.986ZM9.35352 249.025C10.8438 249.263 13.2256 249.801 14.7148 250.04C17.7002 250.594 27.4453 254.754 28.8174 256.098C29.3232 256.593 30.0215 256.99 30.2207 256.97C32.3457 256.753 47.584 272.615 47.7813 275.251C47.8223 275.794 48.1895 276.225 48.5215 276.191C48.9199 276.15 49.2256 276.666 49.2725 277.286C49.3184 277.906 49.0938 278.476 48.6953 278.517C47.8984 278.598 40.3135 276.482 37.0771 275.251C28.6084 272.054 16.2686 263.629 2.57617 251.436C2.57617 251.436 0 249.199 0 249.199C0 249.199 3.32031 248.86 3.32031 248.86C5.17285 248.593 7.85742 248.709 9.35352 249.025C9.35352 249.025 9.35352 249.025 9.35352 249.025Z" fill="#FC4850" transform="scale(1 1)" />
</svg>